<svg width="98" height="71" viewBox="0 0 98 71" fill="none" xmlns="http://www.w3.org/2000/svg">
<path d="M24.2338 69.8928C18.0199 69.8928 12.4275 67.3801 7.45653 62.3549C2.48551 57.1502 0 49.5224 0 39.472C0 27.9855 3.01812 18.653 9.05435 11.4739C15.2681 4.11548 24.0562 0.436279 35.4185 0.436279C39.5018 0.436279 42.6975 0.705482 45.0054 1.2439V13.6276C42.5199 13.2687 39.3243 13.0892 35.4185 13.0892C29.3822 13.0892 24.5 15.1532 20.7718 19.2811C17.2211 22.8705 15.1794 27.6265 14.6467 33.5493C16.9547 30.6777 20.6829 29.2419 25.8315 29.2419C31.1576 29.2419 35.6847 31.1263 39.413 34.8953C43.1412 38.4847 45.0054 43.2409 45.0054 49.1635C45.0054 55.2657 43.0525 60.291 39.1468 64.2394C35.241 68.0084 30.2699 69.8928 24.2338 69.8928ZM77.2282 69.8928C71.0146 69.8928 65.422 67.3801 60.4511 62.3549C55.4801 57.1502 52.9945 49.5224 52.9945 39.472C52.9945 27.9855 56.0127 18.653 62.0489 11.4739C68.2627 4.11548 77.0507 0.436279 88.413 0.436279C92.4963 0.436279 95.6921 0.705482 98 1.2439V13.6276C95.5146 13.2687 92.3188 13.0892 88.413 13.0892C82.3768 13.0892 77.4945 15.1532 73.7662 19.2811C70.2155 22.8705 68.1739 27.6265 67.6412 33.5493C69.9493 30.6777 73.6775 29.2419 78.8261 29.2419C84.1521 29.2419 88.6794 31.1263 92.4076 34.8953C96.1359 38.4847 98 43.2409 98 49.1635C98 55.2657 96.047 60.291 92.1412 64.2394C88.2354 68.0084 83.2646 69.8928 77.2282 69.8928Z" fill="#00A659"/>
</svg>
