<svg width="54" height="51" viewBox="0 0 54 51" fill="none" xmlns="http://www.w3.org/2000/svg">
<path d="M6.79896 26.3635C7.12836 26.5673 7.50312 26.673 7.8822 26.673C8.00505 26.673 8.12844 26.6619 8.25102 26.6395C8.73756 26.55 9.17793 26.2863 9.49599 25.8956C9.50301 25.8878 9.51057 25.8805 9.51732 25.8722C9.89424 25.4091 10.2542 24.9259 10.6025 24.4586C11.309 23.5103 11.9762 22.6146 12.7946 21.8381C12.7951 21.8375 12.7957 21.8369 12.7962 21.8364C12.7967 21.8358 12.7976 21.8353 12.7981 21.8347C13.4021 21.2508 14.8339 20.4771 15.9463 20.1588L14.39 28.7824C14.3843 28.8137 14.3819 28.8447 14.3814 28.8755C14.3568 29.0464 14.3441 29.2192 14.3441 29.392C14.3441 30.1929 14.6125 30.9764 15.0996 31.5984C15.1401 31.6501 15.1827 31.7001 15.2259 31.7494C15.24 31.8897 15.2546 32.0307 15.2689 32.1685C15.4328 33.7415 15.602 35.3679 14.8755 36.902L10.4216 45.7649C10.4175 45.7717 10.4132 45.7781 10.4094 45.7851C10.1993 46.1788 10.0881 46.6248 10.0881 47.0745C10.0881 48.5443 11.2426 49.74 12.6617 49.74C13.5565 49.74 14.4003 49.2476 14.8636 48.4548C14.8685 48.4464 14.8722 48.438 14.8768 48.4296C14.8806 48.4238 14.8847 48.4179 14.8882 48.4117L20.3046 39.2641C20.3057 39.2622 20.3068 39.2602 20.3079 39.2583C20.31 39.2544 20.3127 39.2504 20.3149 39.2465C21.3053 37.4263 21.5823 34.9691 21.6009 33.4829L24.0506 33.8377C24.0571 33.8386 24.0633 33.8391 24.0698 33.8397C24.5112 33.9661 24.8158 34.3777 24.8158 34.8562C24.8158 34.8802 24.8177 34.9034 24.8207 34.9266V42.5991C24.8207 42.626 24.8231 42.652 24.8266 42.6777C24.8266 42.6791 24.8263 42.6802 24.8261 42.6816C24.8225 42.7409 24.8207 42.7994 24.8207 42.8558C24.8207 44.3374 25.9844 45.5429 27.4151 45.5429C28.8455 45.5429 30.0095 44.3374 30.0095 42.8558C30.0095 42.8198 30.0087 42.7826 30.0071 42.7423C30.0063 42.7219 30.0044 42.7018 30.0014 42.6822C30.0063 42.652 30.0095 42.6212 30.0095 42.5899V32.7315C30.0095 32.7113 30.0084 32.6915 30.0063 32.6722C30.0705 30.9991 29.1153 29.472 27.6057 28.8523L22.7411 26.8531L23.5962 22.1118C24.4113 22.6532 25.2794 23.0774 26.0705 23.2969C26.0726 23.2975 26.0748 23.2981 26.0772 23.2986C26.0783 23.2989 26.0797 23.2995 26.0807 23.2997C27.5242 23.6689 28.9976 23.8624 30.4223 24.0495C31.1233 24.1415 31.8479 24.2365 32.5543 24.3512C32.5826 24.3557 32.6107 24.3579 32.6385 24.3579C32.6561 24.3579 32.6733 24.3568 32.6903 24.3551C32.753 24.361 32.8156 24.3641 32.8783 24.3641C34.0425 24.3641 34.9899 23.3831 34.9899 22.177C34.9899 21.6507 34.8066 21.142 34.474 20.7444C34.1513 20.3588 33.7088 20.1032 33.2236 20.0198C33.212 20.017 33.2004 20.014 33.1885 20.012C32.6112 19.9144 32.0261 19.8423 31.4602 19.7724C30.3119 19.6306 29.2271 19.4969 28.1638 19.1678C28.163 19.1675 28.1622 19.1675 28.1614 19.1672C28.1606 19.1669 28.1597 19.1667 28.1592 19.1664C26.8057 18.7612 25.6579 17.6507 24.4429 16.4748C23.8284 15.8803 23.1928 15.2654 22.524 14.7461C22.5184 14.7419 22.5127 14.7383 22.5068 14.7341C22.5014 14.7302 22.4962 14.726 22.4906 14.7221C22.4873 14.7198 22.4838 14.7179 22.4803 14.7156C22.4789 14.7148 22.4776 14.7139 22.4762 14.7131C22.4536 14.6983 22.4306 14.684 22.4079 14.6698C22.4325 14.67 22.4573 14.6706 22.4822 14.6706C25.0572 14.6706 27.1521 12.5009 27.1521 9.83422C27.1521 7.16729 25.0572 4.99756 22.4822 4.99756C19.9072 4.99756 17.8123 7.16729 17.8123 9.83422C17.8123 11.6603 18.7945 13.2531 20.2406 14.0761C19.6007 14.0943 18.9719 14.2738 18.4144 14.5937C17.7464 14.6535 16.2587 14.8417 14.5852 15.4083C12.804 16.0115 11.4092 16.8387 10.4396 17.8669L10.4394 17.8672C10.4388 17.868 10.438 17.8686 10.4375 17.8694C10.4372 17.8697 10.4369 17.87 10.4364 17.8705C10.4364 17.8705 10.4364 17.8705 10.4361 17.8708C9.39123 18.9636 8.4762 20.1728 7.59114 21.3423C7.15536 21.9183 6.70446 22.514 6.24708 23.0833C6.21792 23.1197 6.19443 23.1591 6.17553 23.1999C6.138 23.2533 6.10263 23.3081 6.06996 23.3646C5.78052 23.866 5.69709 24.4541 5.83479 25.0207C5.97222 25.5866 6.31485 26.0637 6.79896 26.3635ZM19.3775 38.6895L13.9672 47.8265C13.961 47.8371 13.9556 47.848 13.9502 47.8586C13.9467 47.8642 13.9426 47.8692 13.9394 47.8751C13.6705 48.3351 13.181 48.6209 12.6615 48.6209C11.838 48.6209 11.1678 47.9268 11.1678 47.0739C11.1678 46.8228 11.228 46.5739 11.3412 46.3519C11.3487 46.3393 11.356 46.3265 11.3628 46.313L15.8372 37.4096C15.838 37.4082 15.8386 37.4065 15.8391 37.4051C15.8402 37.4029 15.8415 37.4006 15.8426 37.3981C16.6118 35.777 16.5443 34.1193 16.3994 32.6118C16.5948 32.6982 16.7984 32.7661 17.0077 32.8134C17.0096 32.814 17.0117 32.8145 17.0136 32.8148C17.0182 32.8159 17.0231 32.817 17.0276 32.8181C17.039 32.8207 17.0503 32.8226 17.0619 32.8243C17.0627 32.8243 17.0636 32.8246 17.0644 32.8249L20.5223 33.3257C20.5244 34.6573 20.2955 36.9965 19.3775 38.6895ZM27.853 20.2388C27.8533 20.2388 27.8538 20.2391 27.8541 20.2394C27.8552 20.2396 27.8563 20.2399 27.8573 20.2402C27.8579 20.2405 27.8584 20.2405 27.859 20.2408C27.8592 20.2408 27.8595 20.2408 27.8598 20.241C29.0105 20.5965 30.1907 20.7422 31.3322 20.8831C31.8766 20.9502 32.439 21.0198 32.9838 21.111C32.9973 21.1141 33.0108 21.1172 33.0246 21.1191C33.5292 21.1941 33.9099 21.6487 33.9099 22.1767C33.9099 22.7659 33.4472 23.2452 32.8783 23.2452C32.8262 23.2452 32.7732 23.241 32.7214 23.2329C32.6828 23.2268 32.6447 23.2254 32.6072 23.2276C31.9225 23.1188 31.2296 23.0277 30.5584 22.9396C29.166 22.7567 27.7264 22.5676 26.3456 22.215C25.4668 21.9703 24.4502 21.4141 23.5673 20.7296C23.5508 20.7153 23.5338 20.7016 23.5157 20.6893C23.0198 20.2995 22.5678 19.8702 22.2095 19.4334C22.0164 19.198 21.6757 19.1695 21.4484 19.3694C21.221 19.5693 21.1935 19.9222 21.3865 20.1577C21.7381 20.5861 22.1622 21.0042 22.6274 21.3909L21.5977 27.1003C21.5977 27.1009 21.5977 27.1015 21.5974 27.102C21.5947 27.1177 21.5928 27.1333 21.5912 27.149C21.5909 27.1518 21.5904 27.1549 21.5901 27.1579C21.589 27.173 21.5888 27.1879 21.5888 27.2027C21.5888 27.2063 21.5885 27.2102 21.5885 27.2139C21.5888 27.2248 21.5898 27.2357 21.5906 27.2466C21.5912 27.2541 21.5915 27.2617 21.5923 27.2692C21.5923 27.2704 21.5925 27.2715 21.5928 27.2726C21.6009 27.3386 21.6203 27.4018 21.6492 27.4594C21.6514 27.4639 21.6533 27.4686 21.6557 27.4731C21.6579 27.477 21.66 27.4804 21.6622 27.4843C21.6941 27.5408 21.7351 27.5919 21.785 27.6345C21.7861 27.6353 21.7872 27.6364 21.7883 27.6375C21.7937 27.642 21.7996 27.6459 21.805 27.6504C21.8137 27.6571 21.8223 27.6641 21.8315 27.6705C21.8342 27.6722 21.8372 27.6739 21.8396 27.6756C21.852 27.6837 21.865 27.6918 21.8782 27.699C21.8804 27.7002 21.8825 27.701 21.8847 27.7021C21.8987 27.7094 21.913 27.7164 21.9276 27.7225C21.9281 27.7228 21.9284 27.7231 21.929 27.7231L27.2069 29.8923C28.3085 30.3444 28.9981 31.4714 28.923 32.6962C28.9206 32.7376 28.9228 32.7782 28.9287 32.8176V42.5899C28.9287 42.617 28.9311 42.6436 28.9349 42.6699C28.9284 42.7082 28.9257 42.7476 28.9274 42.7879C28.9282 42.8105 28.9287 42.8332 28.9287 42.8561C28.9287 43.7211 28.2494 44.4246 27.4143 44.4246C26.5792 44.4246 25.8998 43.7211 25.8998 42.8561C25.8998 42.8234 25.9009 42.7887 25.9031 42.7532C25.9055 42.7127 25.9036 42.6732 25.898 42.6346C25.8988 42.6229 25.8996 42.6114 25.8996 42.5997V34.8567C25.8996 34.8288 25.8969 34.8016 25.8931 34.7748C25.8583 33.7935 25.2011 32.963 24.2707 32.7396C24.2345 32.7309 24.1986 32.7261 24.1629 32.725L21.133 32.286C21.1308 32.2857 21.1289 32.2854 21.1268 32.2852L17.2366 31.7217C16.1852 31.4851 15.4236 30.508 15.4236 29.3926C15.4236 29.1954 15.4473 28.9991 15.4938 28.8084C15.5057 28.7597 15.5102 28.7111 15.5097 28.6632L17.5282 17.479C17.7164 16.6907 18.1913 16.042 18.8218 15.6398C18.8415 15.6295 18.8601 15.6177 18.8782 15.6049C19.3118 15.342 19.8149 15.1935 20.3468 15.1935C20.8951 15.1935 21.4292 15.3535 21.8933 15.6558C22.5092 16.1362 23.117 16.724 23.7047 17.2928C24.9581 18.5045 26.2538 19.7581 27.853 20.2388ZM18.892 9.83394C18.892 7.7839 20.5023 6.11584 22.4819 6.11584C24.4613 6.11584 26.0718 7.7839 26.0718 9.83394C26.0718 11.884 24.4616 13.5518 22.4819 13.5518C20.5023 13.5518 18.892 11.884 18.892 9.83394ZM8.44056 22.0319C9.30753 20.8862 10.2039 19.7016 11.2059 18.6544C11.2064 18.6538 11.2067 18.6532 11.2073 18.6527C11.2078 18.6521 11.2083 18.6516 11.2089 18.651C12.6566 17.1135 15.1163 16.2908 17.0276 15.9209C16.7741 16.3174 16.5859 16.7587 16.4766 17.224C16.4755 17.229 16.475 17.2338 16.4739 17.2388C16.4728 17.2439 16.4714 17.2486 16.4704 17.2536L16.1623 18.96C14.7715 19.2231 12.8813 20.2268 12.0648 21.0131L12.0645 21.0134C12.064 21.0137 12.0637 21.0142 12.0632 21.0145C12.0623 21.0154 12.0615 21.0159 12.0607 21.0168C12.0605 21.017 12.0605 21.017 12.0602 21.0173C11.1751 21.8582 10.4491 22.8327 9.74655 23.7754C9.41148 24.2251 9.06507 24.6898 8.71002 25.1275C8.70084 25.1375 8.69166 25.1476 8.68302 25.1588C8.36199 25.569 7.78986 25.6742 7.35219 25.4032C6.86403 25.1009 6.70419 24.4438 6.99579 23.9382C7.02252 23.8917 7.05303 23.847 7.08651 23.8051C7.11135 23.774 7.13214 23.7407 7.14942 23.7063C7.59195 23.1529 8.02314 22.5836 8.44056 22.0319Z" fill="#F5AB0A"/>
<path d="M47.6904 41.4439H46.4843V7.23189C46.4843 6.92289 46.2427 6.67261 45.9443 6.67261C45.646 6.67261 45.4043 6.92289 45.4043 7.23189V7.98608C43.3588 8.45112 41.424 8.10493 39.5491 7.76936C37.5295 7.40806 35.622 7.06662 33.979 7.92596L33.9793 7.92624C33.8035 8.01852 33.6826 8.20699 33.6826 8.42511V15.3328C33.6826 15.6418 33.9242 15.8921 34.2226 15.8921C34.3103 15.8921 34.3927 15.87 34.4658 15.8317L34.4661 15.832C35.7902 15.1393 37.4472 15.4357 39.3655 15.7791C40.5905 15.9983 41.9149 16.2355 43.3102 16.2355C43.9925 16.2355 44.6918 16.1784 45.4046 16.0355V41.4437H34.5695C34.2712 41.4437 34.0295 41.6939 34.0295 42.0029V45.5994H21.4478C21.1494 45.5994 20.9078 45.85 20.9078 46.1587V49.8122H6.34371C6.04536 49.8122 5.80371 50.0627 5.80371 50.3715C5.80371 50.6805 6.04536 50.9307 6.34371 50.9307H21.4478C21.7459 50.9307 21.9878 50.6805 21.9878 50.3715V46.718H34.569C34.8487 46.718 35.0787 46.4976 35.1063 46.2157H35.1095V42.5622H47.6907C47.9891 42.5622 48.2307 42.3117 48.2307 42.0029C48.2304 41.6942 47.9888 41.4439 47.6904 41.4439ZM45.4043 11.0582L43.0529 15.1161C42.2462 15.0982 41.4548 14.9981 40.675 14.8719L43.8961 9.31297C44.391 9.28808 44.894 9.2302 45.4043 9.12757V11.0582ZM34.7623 12.2212L36.9066 8.52047C37.6151 8.56465 38.3768 8.69497 39.1865 8.83954L36.0191 14.3057C35.588 14.3294 35.1684 14.3943 34.7623 14.516V12.2212ZM34.7623 10.0476V8.78837C35.0369 8.67791 35.3244 8.6038 35.6247 8.55934L34.7623 10.0476ZM40.3302 9.04004C41.0706 9.16281 41.8417 9.26907 42.6387 9.3099L39.5305 14.674C38.7548 14.5353 37.9958 14.3999 37.262 14.335L40.3302 9.04004ZM44.3405 15.0677L45.4043 13.2319V14.894C45.0463 14.9751 44.6918 15.0316 44.3405 15.0677Z" fill="#F5AB0A"/>
</svg>
