<svg width="78" height="71" viewBox="0 0 78 71" fill="none" xmlns="http://www.w3.org/2000/svg">
<path d="M9.82048 36.702C10.2963 36.9858 10.8376 37.133 11.3852 37.133C11.5626 37.133 11.7408 37.1174 11.9179 37.0862C12.6207 36.9617 13.2568 36.5946 13.7162 36.0507C13.7263 36.0398 13.7373 36.0297 13.747 36.018C14.2914 35.3733 14.8113 34.7006 15.3144 34.0501C16.335 32.7299 17.2987 31.483 18.4808 30.4019C18.4816 30.4011 18.4824 30.4003 18.4832 30.3996C18.4839 30.3988 18.4851 30.398 18.4859 30.3972C19.3583 29.5844 21.4265 28.5072 23.0333 28.0641L20.7853 40.0695C20.7771 40.1131 20.7736 40.1563 20.7729 40.1991C20.7374 40.437 20.719 40.6776 20.719 40.9182C20.719 42.0331 21.1067 43.1239 21.8103 43.9898C21.8688 44.0618 21.9304 44.1315 21.9928 44.2C22.0131 44.3954 22.0341 44.5916 22.0548 44.7835C22.2915 46.9734 22.536 49.2376 21.4866 51.3733L15.0531 63.7119C15.0473 63.7212 15.041 63.7302 15.0356 63.7399C14.7321 64.288 14.5715 64.909 14.5715 65.535C14.5715 67.5812 16.2391 69.2458 18.2889 69.2458C19.5814 69.2458 20.8002 68.5603 21.4694 67.4566C21.4764 67.4449 21.4819 67.4332 21.4885 67.4215C21.494 67.4134 21.4998 67.4052 21.5049 67.3966L29.3287 54.6617C29.3302 54.659 29.3318 54.6563 29.3334 54.6536C29.3365 54.6481 29.3404 54.6427 29.3435 54.6372C30.774 52.1032 31.1742 48.6824 31.2011 46.6133L34.7395 47.1073C34.7489 47.1085 34.7579 47.1092 34.7672 47.11C35.4049 47.286 35.8448 47.859 35.8448 48.5251C35.8448 48.5586 35.8475 48.5909 35.8518 48.6232V59.3046C35.8518 59.3419 35.8553 59.3781 35.8604 59.414C35.8604 59.4159 35.86 59.4175 35.8596 59.4194C35.8545 59.5019 35.8518 59.5833 35.8518 59.6619C35.8518 61.7245 37.5327 63.4028 39.5993 63.4028C41.6655 63.4028 43.3468 61.7245 43.3468 59.6619C43.3468 59.6117 43.3457 59.5599 43.3433 59.5039C43.3422 59.4755 43.3394 59.4474 43.3351 59.4202C43.3422 59.3781 43.3468 59.3353 43.3468 59.2917V45.5672C43.3468 45.5392 43.3453 45.5115 43.3422 45.4847C43.435 43.1555 42.0552 41.0295 39.8747 40.1668L32.848 37.3837L34.0832 30.783C35.2606 31.5367 36.5144 32.1273 37.6571 32.4329C37.6602 32.4337 37.6634 32.4345 37.6669 32.4352C37.6684 32.4356 37.6704 32.4364 37.6719 32.4368C39.7569 32.9507 41.8851 33.2201 43.9431 33.4805C44.9556 33.6086 46.0023 33.741 47.0226 33.9006C47.0635 33.9068 47.1041 33.9099 47.1443 33.9099C47.1696 33.9099 47.1946 33.9084 47.2191 33.906C47.3096 33.9142 47.4001 33.9185 47.4906 33.9185C49.1723 33.9185 50.5408 32.5528 50.5408 30.8737C50.5408 30.1411 50.276 29.4329 49.7955 28.8793C49.3294 28.3425 48.6902 27.9867 47.9894 27.8707C47.9726 27.8668 47.9559 27.8625 47.9387 27.8598C47.1049 27.7239 46.2597 27.6234 45.4423 27.5261C43.7836 27.3287 42.2166 27.1427 40.6808 26.6844C40.6796 26.6841 40.6785 26.6841 40.6773 26.6837C40.6761 26.6833 40.6749 26.6829 40.6742 26.6825C38.7191 26.1184 37.0612 24.5725 35.3062 22.9355C34.4186 22.1078 33.5005 21.2517 32.5345 20.5288C32.5263 20.5229 32.5181 20.5179 32.5095 20.512C32.5017 20.5066 32.4943 20.5008 32.4861 20.4953C32.4814 20.4922 32.4764 20.4895 32.4713 20.4863C32.4693 20.4852 32.4674 20.484 32.4654 20.4828C32.4327 20.4622 32.3995 20.4424 32.3668 20.4225C32.4023 20.4229 32.4381 20.4237 32.474 20.4237C36.1935 20.4237 39.2195 17.4031 39.2195 13.6907C39.2195 9.97788 36.1935 6.95728 32.474 6.95728C28.7546 6.95728 25.7286 9.97788 25.7286 13.6907C25.7286 16.2328 27.1474 18.4503 29.2362 19.596C28.3119 19.6213 27.4036 19.8712 26.5983 20.3166C25.6334 20.3999 23.4845 20.6619 21.0673 21.4507C18.4945 22.2904 16.4797 23.4419 15.0792 24.8734L15.0789 24.8738C15.0781 24.875 15.0769 24.8757 15.0761 24.8769C15.0757 24.8773 15.0753 24.8777 15.0746 24.8785C15.0746 24.8785 15.0746 24.8785 15.0742 24.8789C13.5649 26.4003 12.2432 28.0836 10.9647 29.7117C10.3353 30.5136 9.68398 31.3428 9.02332 32.1355C8.9812 32.1861 8.94727 32.241 8.91997 32.2978C8.86576 32.3722 8.81467 32.4485 8.76748 32.5271C8.3494 33.2251 8.22889 34.0438 8.42779 34.8326C8.6263 35.6205 9.12121 36.2847 9.82048 36.702ZM27.9894 53.8617L20.1746 66.5818C20.1656 66.5966 20.1578 66.6118 20.15 66.6266C20.145 66.6344 20.1391 66.6414 20.1344 66.6496C19.746 67.29 19.0389 67.6878 18.2886 67.6878C17.0991 67.6878 16.1311 66.7216 16.1311 65.5342C16.1311 65.1846 16.218 64.8381 16.3815 64.529C16.3924 64.5115 16.4029 64.4936 16.4127 64.4749L22.8757 52.0799C22.8769 52.0779 22.8777 52.0756 22.8785 52.0736C22.88 52.0705 22.882 52.0674 22.8835 52.0639C23.9946 49.8071 23.8971 47.4993 23.6877 45.4006C23.9701 45.5209 24.2641 45.6155 24.5664 45.6813C24.5691 45.6821 24.5722 45.6828 24.575 45.6832C24.5816 45.6848 24.5886 45.6863 24.5952 45.6879C24.6116 45.6914 24.628 45.6941 24.6448 45.6965C24.6459 45.6965 24.6471 45.6968 24.6483 45.6972L29.643 46.3945C29.6461 48.2483 29.3154 51.5049 27.9894 53.8617ZM40.2319 28.1755C40.2323 28.1755 40.2331 28.1759 40.2335 28.1763C40.235 28.1766 40.2366 28.177 40.2381 28.1774C40.2389 28.1778 40.2397 28.1778 40.2405 28.1782C40.2409 28.1782 40.2413 28.1782 40.2417 28.1786C41.9038 28.6734 43.6085 28.8762 45.2574 29.0724C46.0437 29.1659 46.8561 29.2628 47.6431 29.3897C47.6626 29.394 47.6821 29.3983 47.702 29.401C48.4309 29.5053 48.9808 30.1383 48.9808 30.8733C48.9808 31.6936 48.3123 32.3609 47.4906 32.3609C47.4153 32.3609 47.3389 32.355 47.264 32.3437C47.2082 32.3352 47.1532 32.3332 47.099 32.3364C46.11 32.1849 45.1092 32.058 44.1397 31.9354C42.1285 31.6808 40.049 31.4176 38.0545 30.9267C36.7851 30.586 35.3167 29.8117 34.0414 28.8587C34.0176 28.8388 33.9931 28.8198 33.9669 28.8026C33.2505 28.26 32.5977 27.6624 32.0801 27.0543C31.8013 26.7265 31.3091 26.6868 30.9807 26.9651C30.6523 27.2435 30.6126 27.7348 30.8914 28.0626C31.3992 28.659 32.0119 29.241 32.6838 29.7794L31.1964 37.7278C31.1964 37.7286 31.1964 37.7294 31.196 37.7301C31.1921 37.7519 31.1894 37.7738 31.187 37.7956C31.1866 37.7994 31.1859 37.8037 31.1855 37.808C31.1839 37.829 31.1835 37.8497 31.1835 37.8703C31.1835 37.8754 31.1831 37.8808 31.1831 37.8859C31.1835 37.9011 31.1851 37.9162 31.1862 37.9314C31.187 37.9419 31.1874 37.9524 31.1886 37.963C31.1886 37.9645 31.189 37.9661 31.1894 37.9676C31.2011 38.0595 31.2291 38.1475 31.2709 38.2277C31.274 38.2339 31.2767 38.2405 31.2802 38.2468C31.2834 38.2522 31.2865 38.2569 31.2896 38.2623C31.3356 38.341 31.3949 38.4122 31.467 38.4714C31.4686 38.4726 31.4702 38.4741 31.4717 38.4757C31.4795 38.4819 31.4881 38.4873 31.4959 38.4936C31.5084 38.5029 31.5209 38.5126 31.5341 38.5216C31.538 38.5239 31.5423 38.5263 31.5458 38.5286C31.5638 38.5399 31.5825 38.5512 31.6016 38.5613C31.6047 38.5629 31.6078 38.564 31.611 38.5656C31.6312 38.5757 31.6519 38.5854 31.673 38.594C31.6737 38.5944 31.6741 38.5948 31.6749 38.5948L39.2986 41.6146C40.8898 42.2441 41.8859 43.813 41.7775 45.5182C41.774 45.5758 41.7771 45.6322 41.7857 45.6871V59.2917C41.7857 59.3295 41.7892 59.3665 41.7946 59.4031C41.7853 59.4564 41.7814 59.5113 41.7837 59.5673C41.7849 59.5989 41.7857 59.6304 41.7857 59.6623C41.7857 60.8665 40.8044 61.8459 39.5982 61.8459C38.3919 61.8459 37.4106 60.8665 37.4106 59.6623C37.4106 59.6168 37.4122 59.5685 37.4153 59.5191C37.4188 59.4626 37.4161 59.4077 37.4079 59.354C37.4091 59.3377 37.4103 59.3217 37.4103 59.3053V48.5259C37.4103 48.487 37.4064 48.4492 37.4009 48.4119C37.3506 47.0458 36.4013 45.8896 35.0574 45.5785C35.0051 45.5664 34.9533 45.5598 34.9018 45.5583L30.5252 44.9471C30.5221 44.9467 30.5193 44.9463 30.5162 44.9459L24.8971 44.1614C23.3784 43.8321 22.2783 42.4719 22.2783 40.9189C22.2783 40.6445 22.3126 40.3712 22.3797 40.1057C22.3968 40.0379 22.4034 39.9702 22.4027 39.9036L25.3183 24.3334C25.5901 23.236 26.2761 22.3328 27.1868 21.773C27.2153 21.7586 27.2422 21.7422 27.2683 21.7243C27.8946 21.3584 28.6212 21.1517 29.3895 21.1517C30.1816 21.1517 30.953 21.3743 31.6234 21.7952C32.513 22.464 33.3909 23.2823 34.2399 24.0742C36.0503 25.761 37.9219 27.5063 40.2319 28.1755ZM27.2882 13.6903C27.2882 10.8363 29.6142 8.5141 32.4736 8.5141C35.3327 8.5141 37.6591 10.8363 37.6591 13.6903C37.6591 16.5443 35.3331 18.8661 32.4736 18.8661C29.6142 18.8661 27.2882 16.5443 27.2882 13.6903ZM12.1917 30.6717C13.444 29.0767 14.7388 27.4276 16.1861 25.9697C16.1868 25.9689 16.1872 25.9681 16.188 25.9673C16.1888 25.9666 16.1896 25.9658 16.1904 25.965C18.2815 23.8246 21.8344 22.6793 24.5952 22.1642C24.229 22.7163 23.9572 23.3306 23.7993 23.9784C23.7977 23.9854 23.7969 23.992 23.7954 23.999C23.7938 24.006 23.7918 24.0127 23.7903 24.0197L23.3453 26.3952C21.3364 26.7615 18.606 28.1587 17.4267 29.2535L17.4263 29.2538C17.4255 29.2542 17.4251 29.255 17.4243 29.2554C17.4231 29.2566 17.422 29.2574 17.4208 29.2585C17.4204 29.2589 17.4204 29.2589 17.42 29.2593C16.1416 30.4299 15.0929 31.7867 14.0781 33.099C13.5941 33.725 13.0938 34.372 12.5809 34.9813C12.5676 34.9953 12.5544 35.0093 12.5419 35.0249C12.0782 35.596 11.2518 35.7424 10.6196 35.3651C9.91447 34.9443 9.68359 34.0294 10.1048 33.3256C10.1434 33.2609 10.1875 33.1987 10.2358 33.1403C10.2717 33.097 10.3017 33.0507 10.3267 33.0028C10.9659 32.2324 11.5887 31.4398 12.1917 30.6717Z" fill="#3CC0FF"/>
<path d="M68.8861 57.6965H67.144V10.0679C67.144 9.63773 66.7949 9.28931 66.364 9.28931C65.933 9.28931 65.584 9.63773 65.584 10.0679V11.1179C62.6293 11.7653 59.8346 11.2833 57.1264 10.8162C54.2092 10.3132 51.4539 9.83783 49.0807 11.0342L49.0811 11.0346C48.8272 11.163 48.6525 11.4254 48.6525 11.7291V21.3456C48.6525 21.7758 49.0016 22.1242 49.4325 22.1242C49.5593 22.1242 49.6782 22.0935 49.7839 22.0402L49.7843 22.0406C51.6968 21.0762 54.0903 21.4889 56.8612 21.967C58.6307 22.2722 60.5436 22.6023 62.5591 22.6023C63.5447 22.6023 64.5548 22.5229 65.5844 22.324V57.6961H49.9337C49.5027 57.6961 49.1537 58.0445 49.1537 58.4747V63.4815H30.98C30.5491 63.4815 30.2 63.8303 30.2 64.2601V69.3464H9.16306C8.73211 69.3464 8.38306 69.6952 8.38306 70.125C8.38306 70.5551 8.73211 70.9036 9.16306 70.9036H30.98C31.4106 70.9036 31.76 70.5551 31.76 70.125V65.0387H49.9329C50.3369 65.0387 50.6692 64.7319 50.709 64.3395H50.7137V59.2533H68.8865C69.3174 59.2533 69.6665 58.9045 69.6665 58.4747C69.6661 58.0449 69.3171 57.6965 68.8861 57.6965ZM65.584 15.3948L62.1875 21.0439C61.0221 21.019 59.879 20.8796 58.7527 20.7041L63.4054 12.9651C64.1203 12.9305 64.8469 12.8499 65.584 12.707V15.3948ZM50.2121 17.0139L53.3095 11.8618C54.3329 11.9233 55.433 12.1047 56.6027 12.306L52.0276 19.9157C51.4047 19.9488 50.7987 20.0391 50.2121 20.2085V17.0139ZM50.2121 13.9878V12.2348C50.6087 12.081 51.0241 11.9778 51.4578 11.9159L50.2121 13.9878ZM58.2547 12.5851C59.3241 12.7561 60.4379 12.904 61.5892 12.9608L57.0995 20.4284C55.979 20.2353 54.8828 20.0469 53.8227 19.9566L58.2547 12.5851ZM64.0474 20.9766L65.584 18.4208V20.7348C65.0668 20.8477 64.5548 20.9264 64.0474 20.9766Z" fill="#3CC0FF"/>
</svg>
