<svg width="54" height="52" viewBox="0 0 54 52" fill="none" xmlns="http://www.w3.org/2000/svg">
<path d="M2.29319 10.0678H10.9244C10.9337 10.0678 10.9424 10.0653 10.9517 10.0651C11.4013 12.6844 13.7197 14.6877 16.5114 14.6877C19.3031 14.6877 21.6216 12.6842 22.071 10.0648C22.0814 10.0651 22.0911 10.0678 22.1015 10.0678H51.707C52.2278 10.0678 52.6501 9.65287 52.6501 9.14111C52.6501 8.62934 52.2278 8.21441 51.707 8.21441H22.1015C22.091 8.21441 22.0813 8.2171 22.071 8.21742C21.6211 5.59834 19.3028 3.59497 16.5114 3.59497C13.7201 3.59497 11.4018 5.59817 10.9518 8.21713C10.9425 8.21687 10.9338 8.21441 10.9244 8.21441H2.29319C1.77237 8.21441 1.3501 8.62934 1.3501 9.14111C1.3501 9.65287 1.77237 10.0678 2.29319 10.0678ZM16.5114 5.44836C18.5838 5.44836 20.2697 7.1049 20.2697 9.14156C20.2697 11.1777 18.5838 12.8343 16.5114 12.8343C14.4389 12.8343 12.753 11.1777 12.753 9.14156C12.753 7.1049 14.4389 5.44836 16.5114 5.44836Z" fill="#4187F9"/>
<path d="M51.707 25.602H43.1158C43.1063 25.602 43.0975 25.6045 43.088 25.6048C42.6374 22.9866 40.3195 20.9844 37.5289 20.9844C34.738 20.9844 32.42 22.9867 31.9696 25.605C31.9591 25.6047 31.9493 25.602 31.9387 25.602H2.29319C1.77237 25.602 1.3501 26.0169 1.3501 26.5287C1.3501 27.0405 1.77237 27.4554 2.29319 27.4554H31.9387C31.9491 27.4554 31.9587 27.4527 31.969 27.4524C32.4179 30.0726 34.7367 32.0771 37.5289 32.0771C40.3208 32.0771 42.6395 30.0727 43.0885 27.4527C43.0978 27.4529 43.1065 27.4554 43.1158 27.4554H51.707C52.2278 27.4554 52.6501 27.0405 52.6501 26.5287C52.6501 26.0169 52.2278 25.602 51.707 25.602ZM37.5289 30.2237C35.4565 30.2237 33.7706 28.5671 33.7706 26.5305C33.7706 24.4943 35.4565 22.8378 37.5289 22.8378C39.6011 22.8378 41.287 24.4943 41.287 26.5305C41.287 28.5671 39.6011 30.2237 37.5289 30.2237Z" fill="#4187F9"/>
<path d="M51.707 42.9966H22.1015C22.0912 42.9966 22.0817 42.9993 22.0715 42.9996C21.6231 40.3788 19.304 38.374 16.5114 38.374C13.7188 38.374 11.3998 40.3787 10.9513 42.9993C10.9422 42.999 10.9336 42.9966 10.9244 42.9966H2.29319C1.77237 42.9966 1.3501 43.4115 1.3501 43.9233C1.3501 44.4351 1.77237 44.85 2.29319 44.85H10.9244C10.9339 44.85 10.9428 44.8476 10.9523 44.8473C11.4034 47.4648 13.721 49.4663 16.5114 49.4663C19.3018 49.4663 21.6195 47.4646 22.0705 44.8469C22.081 44.8473 22.0909 44.85 22.1015 44.85H51.707C52.2278 44.85 52.6501 44.4351 52.6501 43.9233C52.6501 43.4115 52.2278 42.9966 51.707 42.9966ZM16.5114 47.6129C14.4389 47.6129 12.753 45.9563 12.753 43.9202C12.753 41.884 14.4389 40.2274 16.5114 40.2274C18.5838 40.2274 20.2697 41.884 20.2697 43.9202C20.2697 45.9563 18.5838 47.6129 16.5114 47.6129Z" fill="#4187F9"/>
</svg>
