<svg width="76" height="74" viewBox="0 0 76 74" fill="none" xmlns="http://www.w3.org/2000/svg">
<path d="M3.22721 14.3273H15.3749C15.388 14.3273 15.4002 14.3238 15.4132 14.3234C16.046 18.0509 19.309 20.9018 23.238 20.9018C27.167 20.9018 30.4301 18.0506 31.0627 14.323C31.0773 14.3235 31.0909 14.3273 31.1056 14.3273H72.7726C73.5056 14.3273 74.0999 13.7368 74.0999 13.0085C74.0999 12.2803 73.5056 11.6898 72.7726 11.6898H31.1056C31.0908 11.6898 31.0772 11.6936 31.0626 11.6941C30.4295 7.96691 27.1667 5.11597 23.238 5.11597C19.3095 5.11597 16.0468 7.96668 15.4135 11.6937C15.4003 11.6933 15.3881 11.6898 15.3749 11.6898H3.22721C2.49421 11.6898 1.8999 12.2803 1.8999 13.0085C1.8999 13.7368 2.49421 14.3273 3.22721 14.3273ZM23.238 7.75348C26.1547 7.75348 28.5275 10.1109 28.5275 13.0092C28.5275 15.9068 26.1547 18.2643 23.238 18.2643C20.3212 18.2643 17.9485 15.9068 17.9485 13.0092C17.9485 10.1109 20.3212 7.75348 23.238 7.75348Z" fill="#3CC0FF"/>
<path d="M72.7726 36.4338H60.6813C60.6679 36.4338 60.6555 36.4373 60.6421 36.4377C60.008 32.7118 56.7458 29.8625 52.8182 29.8625C48.8903 29.8625 45.6279 32.712 44.994 36.4381C44.9792 36.4377 44.9654 36.4338 44.9506 36.4338H3.22721C2.49421 36.4338 1.8999 37.0243 1.8999 37.7525C1.8999 38.4808 2.49421 39.0713 3.22721 39.0713H44.9506C44.9652 39.0713 44.9787 39.0675 44.9931 39.067C45.625 42.7957 48.8884 45.6483 52.8182 45.6483C56.7475 45.6483 60.0109 42.7959 60.6429 39.0674C60.656 39.0678 60.6681 39.0713 60.6813 39.0713H72.7726C73.5056 39.0713 74.0999 38.4808 74.0999 37.7525C74.0999 37.0243 73.5056 36.4338 72.7726 36.4338ZM52.8182 43.0108C49.9014 43.0108 47.5288 40.6534 47.5288 37.7551C47.5288 34.8574 49.9014 32.5001 52.8182 32.5001C55.7347 32.5001 58.1074 34.8574 58.1074 37.7551C58.1074 40.6534 55.7347 43.0108 52.8182 43.0108Z" fill="#3CC0FF"/>
<path d="M72.7726 61.1874H31.1056C31.0911 61.1874 31.0777 61.1912 31.0633 61.1917C30.4323 57.4621 27.1684 54.6091 23.238 54.6091C19.3077 54.6091 16.044 57.462 15.4127 61.1912C15.3998 61.1909 15.3879 61.1874 15.3749 61.1874H3.22721C2.49421 61.1874 1.8999 61.7779 1.8999 62.5062C1.8999 63.2345 2.49421 63.8249 3.22721 63.8249H15.3749C15.3883 63.8249 15.4007 63.8215 15.4141 63.8211C16.049 67.546 19.3108 70.3943 23.238 70.3943C27.1653 70.3943 30.4272 67.5458 31.062 63.8206C31.0768 63.8211 31.0906 63.8249 31.1056 63.8249H72.7726C73.5056 63.8249 74.0999 63.2345 74.0999 62.5062C74.0999 61.7779 73.5056 61.1874 72.7726 61.1874ZM23.238 67.7568C20.3212 67.7568 17.9485 65.3993 17.9485 62.5017C17.9485 59.604 20.3212 57.2466 23.238 57.2466C26.1547 57.2466 28.5275 59.604 28.5275 62.5017C28.5275 65.3993 26.1547 67.7568 23.238 67.7568Z" fill="#3CC0FF"/>
</svg>
