<svg width="82" height="82" viewBox="0 0 82 82" fill="none" xmlns="http://www.w3.org/2000/svg">
<path fill-rule="evenodd" clip-rule="evenodd" d="M11.0061 1.131V39.907C11.0061 40.531 11.5171 41.036 12.1421 41.036H54.6581C56.2251 41.093 56.2251 38.708 54.6581 38.771H13.2721V2.266H67.1251V4.809C67.0681 6.376 69.4531 6.376 69.3901 4.809V1.131C69.3901 0.506 68.8861 0 68.2661 0H12.1421C11.3441 0 11.0061 0.651 11.0061 1.131Z" fill="#3CC0FF"/>
<path fill-rule="evenodd" clip-rule="evenodd" d="M32.7561 15.9429C31.6881 15.9949 31.2771 17.3659 32.1471 17.9949L42.7721 25.9269C42.5051 26.6199 42.4331 27.3389 42.5531 27.9699C42.7341 28.9179 43.2341 29.6829 43.9171 30.1939L51.4531 35.8179V35.8089C52.8131 36.8239 54.6931 36.8239 56.0481 35.8089V35.8179L58.2201 34.1979V44.3089C58.2041 44.9439 58.7201 45.4599 59.3491 45.4599C59.9851 45.4599 60.4961 44.9439 60.4851 44.3089V31.9319C60.4801 31.0049 59.4221 30.4749 58.6771 31.0269L54.6881 33.9949C54.1311 34.4119 53.3761 34.4119 52.8131 33.9949L45.2771 28.3749C45.0891 28.2349 44.8541 27.9069 44.7811 27.5419C44.7141 27.1779 44.7501 26.7929 45.1141 26.3089C45.3751 25.9649 45.7391 25.6779 46.0531 25.5849C46.3651 25.4959 46.6301 25.4799 47.1521 25.8649L53.0791 30.2879C53.4801 30.5849 54.0321 30.5849 54.4341 30.2879L60.3551 25.8649C60.7511 25.5689 61.1521 25.4079 61.2981 25.4079H70.9811C71.3041 25.4079 71.8301 25.6949 72.1841 26.1269L78.9081 34.2619C79.3511 34.7939 79.3971 35.5329 79.0281 36.0899L73.9871 43.7669C73.6321 44.2939 73.7791 45.0069 74.3041 45.3509C74.8361 45.6999 75.5491 45.5429 75.8831 45.0069L80.9191 37.3399C81.8401 35.9389 81.7161 34.0949 80.6591 32.8129L73.9351 24.6779C73.2681 23.8699 72.2681 23.1369 70.9821 23.1369H61.2991C60.2741 23.1369 59.5341 23.6459 58.9921 24.0529L53.7631 27.9649L48.5121 24.0529C47.5231 23.3129 46.3451 23.1419 45.4131 23.4179C44.9081 23.5629 44.4861 23.8089 44.1211 24.0989L33.5061 16.1829C33.2921 16.0159 33.0271 15.9319 32.7561 15.9429Z" fill="#3CC0FF"/>
<path fill-rule="evenodd" clip-rule="evenodd" d="M70.3871 33.6768L72.2101 35.9318L68.6891 41.4318C67.8721 42.7078 69.7821 43.9318 70.6011 42.6608L74.5641 36.4528C74.8311 36.0358 74.7931 35.4938 74.4761 35.1138L71.6681 32.6188C70.6881 31.7508 69.5891 32.6828 70.3871 33.6768Z" fill="#3CC0FF"/>
<path fill-rule="evenodd" clip-rule="evenodd" d="M70.8031 12.896C71.9231 15.479 70.7461 18.459 68.1631 19.568C65.5631 20.688 62.5901 19.505 61.4751 16.912C60.3551 14.323 61.5271 11.36 64.1261 10.24C65.4181 9.68295 66.8091 9.69295 68.0171 10.172C69.2201 10.651 70.2451 11.599 70.8031 12.896ZM63.2291 8.15595C59.5101 9.75995 57.7811 14.099 59.3861 17.812C60.9901 21.531 65.3331 23.251 69.0531 21.651C72.7661 20.052 74.4901 15.703 72.8861 11.995C72.0831 10.136 70.5991 8.77595 68.8491 8.08395C67.1001 7.38595 65.0841 7.35995 63.2291 8.15595Z" fill="#3CC0FF"/>
<path d="M61.6311 65.6149H71.3391C74.0581 65.6149 76.3501 67.6149 77.2041 69.5219C78.1721 71.6829 78.2511 74.0059 77.9911 75.3339C77.6881 76.8699 77.4751 77.4589 77.0431 78.0629C76.8391 78.3549 76.5431 78.6879 76.2621 78.9119C75.9861 79.1359 75.7461 79.2079 75.6991 79.2079H57.2511C57.2101 79.2079 56.9701 79.1359 56.6941 78.9119C56.4131 78.6879 56.1111 78.3549 55.9021 78.0629C55.4751 77.4589 55.2671 76.8699 54.9651 75.3339C54.7051 74.0059 54.7731 71.6829 55.7411 69.5219C56.5951 67.6199 58.9121 65.6149 61.6311 65.6149ZM35.3551 65.6149H45.0631C47.7821 65.6149 50.0741 67.6149 50.9281 69.5219C51.8961 71.6829 51.9691 74.0059 51.7091 75.3339C51.4121 76.8699 51.1981 77.4589 50.7661 78.0629C50.5621 78.3549 50.2661 78.6879 49.9851 78.9119C49.7041 79.1359 49.4691 79.2079 49.4221 79.2079H30.9751C30.9341 79.2079 30.6941 79.1359 30.4121 78.9119C30.1361 78.6879 29.8351 78.3549 29.6251 78.0629C29.1981 77.4589 28.9901 76.8699 28.6881 75.3339C28.4281 74.0059 28.4961 71.6829 29.4641 69.5219C30.3191 67.6199 32.6361 65.6149 35.3551 65.6149ZM9.07911 65.6149H18.7821C21.5061 65.6149 23.7981 67.6149 24.6531 69.5219C25.6211 71.6829 25.7001 74.0059 25.4401 75.3339C25.1371 76.8699 24.9191 77.4589 24.4921 78.0629C24.2831 78.3549 23.9871 78.6879 23.7111 78.9119C23.4301 79.1359 23.1951 79.2079 23.1481 79.2079H4.69911C4.65211 79.2079 4.41811 79.1359 4.14211 78.9119C3.86111 78.6879 3.55411 78.3549 3.35011 78.0629C2.92311 77.4589 2.71511 76.8699 2.41311 75.3339C2.15311 74.0059 2.22111 71.6829 3.18911 69.5219C4.03811 67.6199 6.35511 65.6149 9.07911 65.6149ZM9.07911 63.3489C5.30311 63.3489 2.33411 65.8799 1.12011 68.5929C-0.0668896 71.2399 -0.180889 73.9169 0.183111 75.7649C0.506111 77.4059 0.84411 78.4479 1.50211 79.3739C1.80911 79.8069 2.21011 80.2749 2.72111 80.6819C3.23011 81.0869 3.87211 81.4739 4.70011 81.4739H23.1481C23.9761 81.4739 24.6161 81.0869 25.1271 80.6819C25.6381 80.2749 26.0391 79.8069 26.3461 79.3739C26.6431 78.9579 26.8671 78.5099 27.0651 77.9989C27.2581 78.5099 27.4881 78.9579 27.7841 79.3739C28.0871 79.8069 28.4931 80.2749 29.0031 80.6819C29.5081 81.0869 30.1551 81.4739 30.9781 81.4739H49.4261C50.2541 81.4739 50.8941 81.0869 51.4051 80.6819C51.9161 80.2749 52.3171 79.8069 52.6241 79.3739C52.9211 78.9579 53.1451 78.5099 53.3431 77.9989C53.5361 78.5099 53.7661 78.9579 54.0621 79.3739C54.3651 79.8069 54.7711 80.2749 55.2771 80.6819C55.7861 81.0869 56.4281 81.4739 57.2561 81.4739H75.7041C76.5321 81.4739 77.1731 81.0869 77.6831 80.6819C78.1941 80.2749 78.6001 79.8069 78.9021 79.3739C79.5591 78.4529 79.9021 77.4109 80.2261 75.7649C80.5851 73.9169 80.4751 71.2399 79.2871 68.5929C78.0681 65.8849 75.1161 63.3489 71.3441 63.3489H61.6311C57.8551 63.3489 54.8871 65.8799 53.6721 68.5929C53.5481 68.8689 53.4391 69.1499 53.3391 69.4259C53.2351 69.1499 53.1311 68.8689 53.0061 68.5929C51.7931 65.8849 48.8351 63.3489 45.0631 63.3489H35.3551C31.5791 63.3489 28.6111 65.8799 27.3961 68.5929C27.2721 68.8689 27.1681 69.1499 27.0631 69.4319C26.9591 69.1509 26.8501 68.8689 26.7241 68.5929C25.5111 65.8849 22.5571 63.3489 18.7811 63.3489H9.07911Z" fill="#3CC0FF"/>
<path fill-rule="evenodd" clip-rule="evenodd" d="M42.5581 46.8389C44.0791 47.4429 45.3711 48.6259 46.0741 50.2549C47.4811 53.4999 45.9971 57.2549 42.7461 58.6559C39.4811 60.0629 35.7301 58.5789 34.3251 55.3169C32.9181 52.0619 34.4081 48.3169 37.6731 46.9119C39.2981 46.2079 41.0431 46.2349 42.5581 46.8389ZM43.3961 44.7399C41.3331 43.9209 38.9591 43.8849 36.7721 44.8279C32.3811 46.7189 30.3491 51.8329 32.2401 56.2129C34.1311 60.5979 39.2611 62.6249 43.6471 60.7399C48.0271 58.8489 50.0481 53.7289 48.1581 49.3549C47.2101 47.1609 45.4591 45.5629 43.3961 44.7399Z" fill="#3CC0FF"/>
<path fill-rule="evenodd" clip-rule="evenodd" d="M68.8391 46.8389C70.3551 47.4429 71.6471 48.6259 72.3501 50.2549C73.7571 53.4999 72.2731 57.2549 69.0221 58.6559C65.7571 60.0629 62.0061 58.5789 60.6011 55.3169C59.1941 52.0619 60.6841 48.3169 63.9491 46.9119C65.5791 46.2079 67.3191 46.2349 68.8391 46.8389ZM69.6721 44.7399C67.6111 43.9209 65.2401 43.8849 63.0481 44.8279C58.6631 46.7189 56.6251 51.8329 58.5161 56.2129C60.4071 60.5979 65.5371 62.6249 69.9231 60.7399C74.3031 58.8489 76.3241 53.7289 74.4341 49.3549C73.4851 47.1609 71.7351 45.5629 69.6721 44.7399Z" fill="#3CC0FF"/>
</svg>
