<svg width="51" height="51" viewBox="0 0 51 51" fill="none" xmlns="http://www.w3.org/2000/svg">
<path fill-rule="evenodd" clip-rule="evenodd" d="M7.34937 1.22535V25.2231C7.34937 25.6093 7.66561 25.9219 8.05242 25.9219H34.3648C35.3346 25.9571 35.3346 24.4811 34.3648 24.5201H8.75175V1.92778H42.0804V3.5016C42.0452 4.47139 43.5212 4.47139 43.4822 3.5016V1.22535C43.4822 0.838545 43.1703 0.525391 42.7866 0.525391H8.05242C7.55855 0.525391 7.34937 0.928283 7.34937 1.22535Z" fill="#2CD988"/>
<path fill-rule="evenodd" clip-rule="evenodd" d="M20.8097 10.3924C20.1487 10.4246 19.8943 11.2731 20.4328 11.6624L27.0084 16.5714C26.8431 17.0003 26.7986 17.4452 26.8729 17.8357C26.9849 18.4224 27.2943 18.8959 27.717 19.2121L32.3809 22.6927V22.6872C33.2226 23.3153 34.3861 23.3153 35.2247 22.6872V22.6927L36.5689 21.6901V27.9477C36.559 28.3407 36.8783 28.66 37.2676 28.66C37.6612 28.66 37.9775 28.3407 37.9707 27.9477V20.2878C37.9676 19.7141 37.3128 19.386 36.8517 19.7277L34.383 21.5645C34.0383 21.8226 33.571 21.8226 33.2226 21.5645L28.5587 18.0864C28.4423 17.9997 28.2969 17.7968 28.2517 17.5709C28.2103 17.3456 28.2325 17.1073 28.4578 16.8078C28.6193 16.5949 28.8446 16.4173 29.0389 16.3597C29.232 16.3046 29.396 16.2947 29.7191 16.533L33.3872 19.2703C33.6354 19.4541 33.977 19.4541 34.2258 19.2703L37.8902 16.533C38.1353 16.3498 38.3834 16.2502 38.4738 16.2502H44.4664C44.6663 16.2502 44.9919 16.4278 45.211 16.6951L49.3723 21.7298C49.6465 22.059 49.675 22.5164 49.4466 22.8611L46.3268 27.6122C46.1071 27.9384 46.1981 28.3796 46.523 28.5925C46.8522 28.8085 47.2935 28.7114 47.5002 28.3796L50.6169 23.6347C51.1869 22.7676 51.1102 21.6264 50.456 20.833L46.2946 15.7984C45.8818 15.2983 45.2629 14.8447 44.4671 14.8447H38.4744C37.8401 14.8447 37.3821 15.1597 37.0467 15.4116L33.8105 17.8326L30.5608 15.4116C29.9487 14.9536 29.2197 14.8478 28.6429 15.0186C28.3303 15.1083 28.0691 15.2606 27.8433 15.44L21.2738 10.541C21.1414 10.4376 20.9774 10.3856 20.8097 10.3924Z" fill="#2CD988"/>
<path fill-rule="evenodd" clip-rule="evenodd" d="M44.0993 21.3674L45.2275 22.763L43.0484 26.1668C42.5428 26.9565 43.7249 27.714 44.2318 26.9274L46.6844 23.0854C46.8496 22.8273 46.8261 22.4919 46.6299 22.2567L44.8921 20.7126C44.2856 20.1754 43.6054 20.7522 44.0993 21.3674Z" fill="#2CD988"/>
<path fill-rule="evenodd" clip-rule="evenodd" d="M44.3566 8.50621C45.0498 10.1048 44.3214 11.9491 42.7228 12.6354C41.1137 13.3285 39.2738 12.5964 38.5837 10.9916C37.8905 9.38935 38.6159 7.5556 40.2244 6.86246C41.024 6.51774 41.8848 6.52393 42.6324 6.82037C43.3769 7.11682 44.0113 7.70352 44.3566 8.50621ZM39.6692 5.5727C37.3676 6.56539 36.2975 9.25072 37.2909 11.5486C38.2835 13.8503 40.9713 14.9147 43.2736 13.9245C45.5715 12.9349 46.6385 10.2434 45.6458 7.94859C45.1488 6.79809 44.2304 5.95641 43.1473 5.52814C42.0649 5.09616 40.8172 5.08007 39.6692 5.5727Z" fill="#2CD988"/>
<path d="M38.6803 41.1333H44.6884C46.3711 41.1333 47.7896 42.3711 48.3181 43.5513C48.9172 44.8887 48.9661 46.3264 48.8052 47.1483C48.6177 48.0989 48.4859 48.4634 48.2185 48.8372C48.0922 49.0179 47.9091 49.224 47.7351 49.3626C47.5643 49.5013 47.4158 49.5458 47.3867 49.5458H35.9696C35.9442 49.5458 35.7957 49.5013 35.6249 49.3626C35.4509 49.224 35.264 49.0179 35.1347 48.8372C34.8704 48.4634 34.7417 48.0989 34.5548 47.1483C34.3939 46.3264 34.436 44.8887 35.0351 43.5513C35.5636 42.3742 36.9975 41.1333 38.6803 41.1333ZM22.4185 41.1333H28.4266C30.1094 41.1333 31.5278 42.3711 32.0564 43.5513C32.6555 44.8887 32.7006 46.3264 32.5397 47.1483C32.3559 48.0989 32.2235 48.4634 31.9561 48.8372C31.8299 49.0179 31.6467 49.224 31.4728 49.3626C31.2989 49.5013 31.1534 49.5458 31.1243 49.5458H19.7078C19.6824 49.5458 19.5339 49.5013 19.3594 49.3626C19.1886 49.224 19.0023 49.0179 18.8723 48.8372C18.608 48.4634 18.4793 48.0989 18.2924 47.1483C18.1315 46.3264 18.1736 44.8887 18.7727 43.5513C19.3018 42.3742 20.7358 41.1333 22.4185 41.1333ZM6.15675 41.1333H12.1618C13.8476 41.1333 15.2661 42.3711 15.7952 43.5513C16.3943 44.8887 16.4432 46.3264 16.2823 47.1483C16.0948 48.0989 15.9599 48.4634 15.6956 48.8372C15.5662 49.0179 15.3831 49.224 15.2122 49.3626C15.0383 49.5013 14.8929 49.5458 14.8638 49.5458H3.44604C3.41695 49.5458 3.27213 49.5013 3.10132 49.3626C2.92742 49.224 2.73742 49.0179 2.61117 48.8372C2.3469 48.4634 2.21818 48.0989 2.03127 47.1483C1.87036 46.3264 1.91245 44.8887 2.51153 43.5513C3.03696 42.3742 4.47091 41.1333 6.15675 41.1333ZM6.15675 39.731C3.81985 39.731 1.98238 41.2973 1.23106 42.9764C0.496445 44.6146 0.425892 46.2713 0.651166 47.415C0.851065 48.4306 1.06025 49.0755 1.46747 49.6486C1.65747 49.9165 1.90564 50.2062 2.22189 50.4581C2.5369 50.7087 2.93422 50.9482 3.44666 50.9482H14.8638C15.3762 50.9482 15.7723 50.7087 16.0886 50.4581C16.4048 50.2062 16.653 49.9165 16.843 49.6486C17.0268 49.3911 17.1654 49.1138 17.288 48.7976C17.4074 49.1138 17.5498 49.3911 17.7329 49.6486C17.9205 49.9165 18.1717 50.2062 18.4874 50.4581C18.7999 50.7087 19.2003 50.9482 19.7097 50.9482H31.1268C31.6392 50.9482 32.0353 50.7087 32.3516 50.4581C32.6678 50.2062 32.916 49.9165 33.106 49.6486C33.2898 49.3911 33.4284 49.1138 33.551 48.7976C33.6704 49.1138 33.8128 49.3911 33.996 49.6486C34.1835 49.9165 34.4347 50.2062 34.7479 50.4581C35.0629 50.7087 35.4602 50.9482 35.9727 50.9482H47.3898C47.9022 50.9482 48.299 50.7087 48.6146 50.4581C48.9308 50.2062 49.1821 49.9165 49.369 49.6486C49.7756 49.0786 49.9879 48.4337 50.1884 47.415C50.4106 46.2713 50.3425 44.6146 49.6073 42.9764C48.8529 41.3004 47.0259 39.731 44.6915 39.731H38.6803C36.3434 39.731 34.5065 41.2973 33.7546 42.9764C33.6778 43.1472 33.6104 43.3211 33.5485 43.4919C33.4841 43.3211 33.4198 43.1472 33.3424 42.9764C32.5917 41.3004 30.7611 39.731 28.4266 39.731H22.4185C20.0816 39.731 18.2448 41.2973 17.4928 42.9764C17.4161 43.1472 17.3517 43.3211 17.2867 43.4956C17.2224 43.3217 17.1549 43.1472 17.0769 42.9764C16.3262 41.3004 14.498 39.731 12.1611 39.731H6.15675Z" fill="#2CD988"/>
<path fill-rule="evenodd" clip-rule="evenodd" d="M26.8763 29.5133C27.8177 29.8871 28.6173 30.6193 29.0523 31.6274C29.9231 33.6357 29.0047 35.9596 26.9927 36.8267C24.972 37.6974 22.6506 36.779 21.7811 34.7602C20.9103 32.7458 21.8324 30.428 23.8531 29.5585C24.8588 29.1228 25.9387 29.1395 26.8763 29.5133ZM27.395 28.2143C26.1182 27.7074 24.649 27.6852 23.2955 28.2688C20.578 29.4391 19.3204 32.604 20.4907 35.3147C21.661 38.0285 24.8359 39.283 27.5503 38.1164C30.261 36.9461 31.5118 33.7774 30.3421 31.0704C29.7554 29.7126 28.6717 28.7236 27.395 28.2143Z" fill="#2CD988"/>
<path fill-rule="evenodd" clip-rule="evenodd" d="M43.1411 29.5133C44.0793 29.8871 44.8789 30.6193 45.314 31.6274C46.1848 33.6357 45.2663 35.9596 43.2544 36.8267C41.2337 37.6974 38.9123 36.779 38.0427 34.7602C37.172 32.7458 38.0941 30.428 40.1148 29.5585C41.1235 29.1228 42.2004 29.1395 43.1411 29.5133ZM43.6566 28.2143C42.3811 27.7074 40.9137 27.6852 39.5572 28.2688C36.8434 29.4391 35.5821 32.604 36.7524 35.3147C37.9227 38.0285 41.0976 39.283 43.812 38.1164C46.5227 36.9461 47.7734 33.7774 46.6038 31.0704C46.0164 29.7126 44.9334 28.7236 43.6566 28.2143Z" fill="#2CD988"/>
</svg>
