<svg width="28" height="28" viewBox="0 0 28 28" fill="none" xmlns="http://www.w3.org/2000/svg">
<g clip-path="url(#clip0_67_656)">
<path d="M25.0834 4.66663H22.5556V6.22218H24.889V23.3333H3.11118V6.22218H5.44451V4.66663H2.91673C2.73492 4.66966 2.55548 4.70849 2.38867 4.78089C2.22186 4.85328 2.07095 4.95783 1.94456 5.08856C1.81816 5.21929 1.71876 5.37364 1.65202 5.54279C1.58529 5.71195 1.55253 5.89259 1.55562 6.0744V23.4811C1.55253 23.6629 1.58529 23.8435 1.65202 24.0127C1.71876 24.1818 1.81816 24.3362 1.94456 24.4669C2.07095 24.5976 2.22186 24.7022 2.38867 24.7746C2.55548 24.847 2.73492 24.8858 2.91673 24.8888H25.0834C25.2652 24.8858 25.4446 24.847 25.6115 24.7746C25.7783 24.7022 25.9292 24.5976 26.0556 24.4669C26.182 24.3362 26.2814 24.1818 26.3481 24.0127C26.4148 23.8435 26.4476 23.6629 26.4445 23.4811V6.0744C26.4476 5.89259 26.4148 5.71195 26.3481 5.54279C26.2814 5.37364 26.182 5.21929 26.0556 5.08856C25.9292 4.95783 25.7783 4.85328 25.6115 4.78089C25.4446 4.70849 25.2652 4.66966 25.0834 4.66663Z" fill="black"/>
<path d="M6.22217 10.8889H7.77772V12.4445H6.22217V10.8889Z" fill="black"/>
<path d="M10.8889 10.8889H12.4445V12.4445H10.8889V10.8889Z" fill="black"/>
<path d="M15.5557 10.8889H17.1112V12.4445H15.5557V10.8889Z" fill="black"/>
<path d="M20.2222 10.8889H21.7777V12.4445H20.2222V10.8889Z" fill="black"/>
<path d="M6.22217 14.7778H7.77772V16.3334H6.22217V14.7778Z" fill="black"/>
<path d="M10.8889 14.7778H12.4445V16.3334H10.8889V14.7778Z" fill="black"/>
<path d="M15.5557 14.7778H17.1112V16.3334H15.5557V14.7778Z" fill="black"/>
<path d="M20.2222 14.7778H21.7777V16.3334H20.2222V14.7778Z" fill="black"/>
<path d="M6.22217 18.6666H7.77772V20.2222H6.22217V18.6666Z" fill="black"/>
<path d="M10.8889 18.6666H12.4445V20.2222H10.8889V18.6666Z" fill="black"/>
<path d="M15.5557 18.6666H17.1112V20.2222H15.5557V18.6666Z" fill="black"/>
<path d="M20.2222 18.6666H21.7777V20.2222H20.2222V18.6666Z" fill="black"/>
<path d="M7.77778 7.77776C7.98406 7.77776 8.18189 7.69582 8.32775 7.54996C8.47361 7.4041 8.55556 7.20627 8.55556 6.99999V2.33332C8.55556 2.12704 8.47361 1.92921 8.32775 1.78335C8.18189 1.63749 7.98406 1.55554 7.77778 1.55554C7.5715 1.55554 7.37367 1.63749 7.22781 1.78335C7.08194 1.92921 7 2.12704 7 2.33332V6.99999C7 7.20627 7.08194 7.4041 7.22781 7.54996C7.37367 7.69582 7.5715 7.77776 7.77778 7.77776Z" fill="black"/>
<path d="M20.2221 7.77776C20.4284 7.77776 20.6262 7.69582 20.7721 7.54996C20.9179 7.4041 20.9999 7.20627 20.9999 6.99999V2.33332C20.9999 2.12704 20.9179 1.92921 20.7721 1.78335C20.6262 1.63749 20.4284 1.55554 20.2221 1.55554C20.0158 1.55554 19.818 1.63749 19.6721 1.78335C19.5263 1.92921 19.4443 2.12704 19.4443 2.33332V6.99999C19.4443 7.20627 19.5263 7.4041 19.6721 7.54996C19.818 7.69582 20.0158 7.77776 20.2221 7.77776Z" fill="black"/>
<path d="M10.1111 4.66663H17.8889V6.22218H10.1111V4.66663Z" fill="black"/>
</g>
<defs>
<clipPath id="clip0_67_656">
<rect width="28" height="28" fill="white"/>
</clipPath>
</defs>
</svg>
