<svg width="92" height="67" viewBox="0 0 92 67" fill="none" xmlns="http://www.w3.org/2000/svg">
<path d="M40.2523 12.867L38.9793 18.523C38.8603 19.05 39.0673 19.596 39.5033 19.914C39.9403 20.231 40.5243 20.258 40.9883 19.983L45.9753 17.025L50.9613 19.983C51.1743 20.11 51.4133 20.172 51.6513 20.172C51.9313 20.172 52.2103 20.085 52.4463 19.914C52.8833 19.597 53.0893 19.05 52.9703 18.523L51.6973 12.867L56.0513 9.039C56.4563 8.683 56.6113 8.119 56.4443 7.606C56.2773 7.093 55.8213 6.728 55.2833 6.678L49.5113 6.141L47.2163 0.817C47.0023 0.321 46.5143 0 45.9743 0C45.4343 0 44.9463 0.321 44.7323 0.817L42.4373 6.141L36.6643 6.679C36.1263 6.729 35.6703 7.094 35.5033 7.607C35.3363 8.12 35.4913 8.684 35.8963 9.04L40.2523 12.867ZM43.4883 8.759C43.9803 8.713 44.4093 8.402 44.6043 7.948L45.9753 4.768L47.3463 7.948C47.5423 8.402 47.9703 8.713 48.4623 8.759L51.9103 9.08L49.3093 11.366C48.9383 11.693 48.7743 12.196 48.8833 12.678L49.6433 16.056L46.6653 14.289C46.4523 14.163 46.2143 14.1 45.9753 14.1C45.7363 14.1 45.4983 14.163 45.2853 14.289L42.3073 16.056L43.0673 12.678C43.1763 12.195 43.0123 11.692 42.6413 11.366L40.0403 9.08L43.4883 8.759ZM53.7243 43.734C55.7683 41.747 57.0393 38.984 57.0393 35.932C57.0393 29.897 52.0763 24.987 45.9753 24.987C39.8743 24.987 34.9113 29.897 34.9113 35.932C34.9113 38.984 36.1823 41.747 38.2263 43.734C35.8723 44.634 33.7523 46.121 32.0923 48.073C29.7743 50.798 28.4973 54.258 28.4973 57.818V64.714C28.4973 65.918 29.4773 66.898 30.6813 66.898H61.2713C62.4753 66.898 63.4553 65.918 63.4553 64.714V57.818C63.4553 54.258 62.1783 50.797 59.8603 48.073C58.1983 46.121 56.0783 44.634 53.7243 43.734ZM37.6153 35.932C37.6153 31.388 41.3653 27.691 45.9753 27.691C50.5853 27.691 54.3353 31.388 54.3353 35.932C54.3353 40.476 50.5853 44.172 45.9753 44.172C41.3653 44.172 37.6153 40.475 37.6153 35.932ZM60.7493 64.194H31.2013V57.818C31.2013 51.937 35.3083 46.917 41.0273 45.716C42.5173 46.456 44.1973 46.876 45.9753 46.876C47.7533 46.876 49.4333 46.456 50.9233 45.716C56.6423 46.917 60.7493 51.937 60.7493 57.818V64.194ZM29.0303 30.022L27.7573 24.366L32.1113 20.538C32.5163 20.182 32.6713 19.618 32.5043 19.105C32.3373 18.592 31.8813 18.227 31.3433 18.177L25.5713 17.64L23.2763 12.316C23.0623 11.82 22.5743 11.499 22.0343 11.499C21.4943 11.499 21.0063 11.82 20.7923 12.316L18.4973 17.639L12.7243 18.177C12.1863 18.227 11.7303 18.592 11.5633 19.106C11.3963 19.619 11.5513 20.183 11.9563 20.539L16.3103 24.367L15.0373 30.023C14.9183 30.55 15.1253 31.096 15.5613 31.414C15.9983 31.731 16.5823 31.758 17.0463 31.483L22.0323 28.525L27.0183 31.483C27.2313 31.61 27.4703 31.672 27.7083 31.672C27.9883 31.672 28.2673 31.585 28.5033 31.414C28.9423 31.095 29.1483 30.549 29.0303 30.022ZM25.3693 22.865C24.9983 23.192 24.8343 23.695 24.9433 24.177L25.7033 27.555L22.7253 25.788C22.5123 25.662 22.2743 25.599 22.0353 25.599C21.7963 25.599 21.5583 25.662 21.3453 25.788L18.3673 27.555L19.1273 24.177C19.2363 23.694 19.0723 23.191 18.7013 22.865L16.1003 20.579L19.5483 20.258C20.0403 20.212 20.4693 19.901 20.6643 19.447L22.0353 16.267L23.4063 19.447C23.6023 19.901 24.0303 20.212 24.5223 20.258L27.9703 20.579L25.3693 22.865ZM19.8463 42.116L14.0743 41.579L11.7793 36.255C11.5653 35.759 11.0773 35.438 10.5373 35.438C9.99727 35.438 9.50927 35.759 9.29527 36.255L7.00027 41.578L1.22727 42.116C0.689272 42.166 0.233272 42.531 0.0662724 43.045C-0.100728 43.558 0.0542723 44.122 0.459272 44.478L4.81327 48.306L3.54027 53.962C3.42127 54.489 3.62827 55.035 4.06427 55.353C4.50127 55.67 5.08527 55.697 5.54927 55.422L10.5353 52.464L15.5213 55.422C15.7343 55.549 15.9733 55.611 16.2113 55.611C16.4913 55.611 16.7703 55.524 17.0063 55.353C17.4433 55.036 17.6493 54.489 17.5303 53.962L16.2573 48.306L20.6113 44.478C21.0163 44.122 21.1713 43.558 21.0043 43.045C20.8403 42.531 20.3833 42.166 19.8463 42.116ZM13.8713 46.805C13.5003 47.132 13.3363 47.635 13.4453 48.117L14.2053 51.495L11.2273 49.728C11.0143 49.602 10.7763 49.539 10.5373 49.539C10.2983 49.539 10.0603 49.602 9.84727 49.728L6.86927 51.495L7.62927 48.117C7.73827 47.634 7.57427 47.131 7.20327 46.805L4.60227 44.519L8.05027 44.198C8.54227 44.152 8.97127 43.841 9.16627 43.387L10.5373 40.207L11.9083 43.387C12.1043 43.841 12.5323 44.152 13.0243 44.198L16.4723 44.519L13.8713 46.805ZM75.5903 31.671C75.8703 31.671 76.1493 31.584 76.3853 31.413C76.8223 31.096 77.0283 30.549 76.9093 30.022L75.6363 24.366L79.9903 20.538C80.3953 20.182 80.5503 19.618 80.3833 19.105C80.2163 18.592 79.7603 18.227 79.2223 18.177L73.4503 17.64L71.1553 12.316C70.9413 11.82 70.4533 11.499 69.9133 11.499C69.3733 11.499 68.8853 11.82 68.6713 12.316L66.3763 17.639L60.6033 18.177C60.0653 18.227 59.6093 18.592 59.4423 19.105C59.2753 19.618 59.4303 20.182 59.8353 20.538L64.1893 24.366L62.9163 30.022C62.7973 30.549 63.0043 31.095 63.4403 31.413C63.8773 31.73 64.4603 31.757 64.9253 31.482L69.9113 28.524L74.8973 31.482C75.1143 31.608 75.3523 31.671 75.5903 31.671ZM70.6043 25.788C70.3913 25.662 70.1533 25.599 69.9143 25.599C69.6753 25.599 69.4373 25.662 69.2243 25.788L66.2463 27.555L67.0063 24.177C67.1153 23.694 66.9513 23.191 66.5803 22.865L63.9793 20.579L67.4273 20.258C67.9193 20.212 68.3483 19.901 68.5433 19.447L69.9143 16.267L71.2853 19.447C71.4813 19.901 71.9093 20.212 72.4013 20.258L75.8493 20.579L73.2483 22.865C72.8773 23.192 72.7133 23.695 72.8223 24.177L73.5823 27.555L70.6043 25.788ZM91.8833 43.045C91.7163 42.532 91.2603 42.167 90.7223 42.117L84.9503 41.58L82.6553 36.256C82.4413 35.76 81.9533 35.439 81.4133 35.439C80.8733 35.439 80.3853 35.76 80.1713 36.256L77.8763 41.579L72.1033 42.117C71.5653 42.167 71.1093 42.532 70.9423 43.046C70.7753 43.559 70.9303 44.123 71.3353 44.479L75.6893 48.307L74.4163 53.963C74.2973 54.49 74.5043 55.036 74.9403 55.354C75.3773 55.671 75.9603 55.698 76.4253 55.423L81.4113 52.465L86.3973 55.423C86.6103 55.55 86.8493 55.612 87.0873 55.612C87.3673 55.612 87.6463 55.525 87.8823 55.354C88.3193 55.037 88.5253 54.49 88.4063 53.963L87.1333 48.307L91.4873 44.479C91.8953 44.121 92.0503 43.558 91.8833 43.045ZM84.7473 46.804C84.3763 47.131 84.2123 47.634 84.3213 48.116L85.0813 51.494L82.1033 49.727C81.8903 49.601 81.6523 49.538 81.4133 49.538C81.1743 49.538 80.9363 49.601 80.7233 49.727L77.7453 51.494L78.5053 48.116C78.6143 47.633 78.4503 47.13 78.0793 46.804L75.4783 44.518L78.9263 44.197C79.4183 44.151 79.8473 43.84 80.0423 43.386L81.4133 40.206L82.7843 43.386C82.9803 43.84 83.4083 44.151 83.9003 44.197L87.3483 44.518L84.7473 46.804Z" fill="#3CC0FF"/>
</svg>
