<svg width="60" height="43" viewBox="0 0 60 43" fill="none" xmlns="http://www.w3.org/2000/svg">
<path d="M26.2659 8.27052L25.4352 11.906C25.3576 12.2448 25.4927 12.5957 25.7772 12.8001C26.0623 13.0039 26.4434 13.0212 26.7462 12.8445L30.0003 10.9432L33.2539 12.8445C33.3929 12.9261 33.5488 12.966 33.7041 12.966C33.8868 12.966 34.0689 12.91 34.2229 12.8001C34.508 12.5964 34.6425 12.2448 34.5648 11.906L33.7341 8.27052L36.5753 5.81C36.8395 5.58117 36.9407 5.21865 36.8317 4.88891C36.7227 4.55917 36.4252 4.32455 36.0741 4.29242L32.3077 3.94725L30.8101 0.525143C30.6705 0.206329 30.3521 0 29.9997 0C29.6473 0 29.3289 0.206329 29.1892 0.525143L27.6917 3.94725L23.9246 4.29306C23.5736 4.3252 23.276 4.55981 23.167 4.88955C23.0581 5.21929 23.1592 5.58181 23.4235 5.81064L26.2659 8.27052ZM28.3775 5.63002C28.6985 5.60045 28.9785 5.40055 29.1057 5.10873L30.0003 3.06473L30.895 5.10873C31.0229 5.40055 31.3021 5.60045 31.6232 5.63002L33.8731 5.83635L32.1759 7.30572C31.9338 7.51591 31.8268 7.83922 31.8979 8.14903L32.3938 10.3203L30.4506 9.18454C30.3116 9.10355 30.1563 9.06305 30.0003 9.06305C29.8444 9.06305 29.6891 9.10355 29.5501 9.18454L27.6069 10.3203L28.1028 8.14903C28.1739 7.83858 28.0669 7.51526 27.8248 7.30572L26.1276 5.83635L28.3775 5.63002ZM35.0568 28.1109C36.3906 26.8337 37.22 25.0577 37.22 23.096C37.22 19.2169 33.9814 16.0609 30.0003 16.0609C26.0192 16.0609 22.7807 19.2169 22.7807 23.096C22.7807 25.0577 23.6101 26.8337 24.9439 28.1109C23.4078 28.6894 22.0244 29.6452 20.9412 30.8999C19.4287 32.6514 18.5954 34.8754 18.5954 37.1637V41.5962C18.5954 42.3701 19.2349 43 20.0205 43H39.9815C40.7671 43 41.4066 42.3701 41.4066 41.5962V37.1637C41.4066 34.8754 40.5733 32.6508 39.0608 30.8999C37.9762 29.6452 36.5929 28.6894 35.0568 28.1109ZM24.5452 23.096C24.5452 20.1753 26.9922 17.7989 30.0003 17.7989C33.0085 17.7989 35.4555 20.1753 35.4555 23.096C35.4555 26.0167 33.0085 28.3924 30.0003 28.3924C26.9922 28.3924 24.5452 26.0161 24.5452 23.096ZM39.6409 41.262H20.3598V37.1637C20.3598 33.3835 23.0398 30.1568 26.7716 29.3849C27.7439 29.8605 28.8401 30.1305 30.0003 30.1305C31.1605 30.1305 32.2568 29.8605 33.2291 29.3849C36.9609 30.1568 39.6409 33.3835 39.6409 37.1637V41.262ZM18.9432 19.2972L18.1125 15.6617L20.9536 13.2012C21.2179 12.9724 21.3191 12.6099 21.2101 12.2801C21.1011 11.9504 20.8036 11.7158 20.4525 11.6836L16.6861 11.3385L15.1885 7.91635C15.0489 7.59754 14.7304 7.39121 14.3781 7.39121C14.0257 7.39121 13.7073 7.59754 13.5676 7.91635L12.0701 11.3378L8.303 11.6836C7.95193 11.7158 7.65438 11.9504 7.54541 12.2808C7.43643 12.6105 7.53758 12.973 7.80185 13.2018L10.643 15.6624L9.8123 19.2979C9.73465 19.6366 9.86973 19.9876 10.1542 20.192C10.4394 20.3957 10.8205 20.4131 11.1232 20.2363L14.3768 18.335L17.6303 20.2363C17.7693 20.3179 17.9252 20.3578 18.0805 20.3578C18.2632 20.3578 18.4453 20.3019 18.5993 20.192C18.8858 19.9869 19.0202 19.636 18.9432 19.2972ZM16.5543 14.6969C16.3122 14.9071 16.2052 15.2304 16.2763 15.5402L16.7722 17.7115L14.829 16.5757C14.69 16.4948 14.5347 16.4543 14.3787 16.4543C14.2228 16.4543 14.0675 16.4948 13.9285 16.5757L11.9852 17.7115L12.4812 15.5402C12.5523 15.2298 12.4453 14.9065 12.2032 14.6969L10.5059 13.2276L12.7559 13.0212C13.0769 12.9917 13.3569 12.7918 13.4841 12.4999L14.3787 10.4559L15.2733 12.4999C15.4012 12.7918 15.6805 12.9917 16.0016 13.0212L18.2515 13.2276L16.5543 14.6969ZM12.9503 27.0709L9.18392 26.7257L7.68635 23.3036C7.54671 22.9848 7.22828 22.7785 6.87591 22.7785C6.52354 22.7785 6.20511 22.9848 6.06546 23.3036L4.5679 26.7251L0.800835 27.0709C0.449772 27.103 0.152218 27.3376 0.0432449 27.668C-0.065728 27.9978 0.0354144 28.3603 0.29969 28.5891L3.14081 31.0496L2.31014 34.6851C2.23249 35.0239 2.36756 35.3748 2.65207 35.5792C2.93723 35.783 3.3183 35.8003 3.62108 35.6236L6.8746 33.7223L10.1281 35.6236C10.2671 35.7052 10.4231 35.7451 10.5784 35.7451C10.7611 35.7451 10.9431 35.6891 11.0971 35.5792C11.3823 35.3755 11.5167 35.0239 11.4391 34.6851L10.6084 31.0496L13.4495 28.5891C13.7138 28.3603 13.8149 27.9978 13.706 27.668C13.5989 27.3376 13.3007 27.103 12.9503 27.0709ZM9.05145 30.0848C8.80936 30.295 8.70235 30.6183 8.77347 30.9281L9.2694 33.0994L7.32616 31.9636C7.18717 31.8827 7.03186 31.8422 6.87591 31.8422C6.71995 31.8422 6.56465 31.8827 6.42566 31.9636L4.48242 33.0994L4.97835 30.9281C5.04947 30.6177 4.94246 30.2944 4.70037 30.0848L3.00313 28.6155L5.25306 28.4091C5.57411 28.3796 5.85404 28.1797 5.98129 27.8878L6.87591 25.8438L7.77053 27.8878C7.89843 28.1797 8.17771 28.3796 8.49876 28.4091L10.7487 28.6155L9.05145 30.0848ZM49.3251 20.3572C49.5078 20.3572 49.6899 20.3012 49.8439 20.1913C50.129 19.9876 50.2634 19.636 50.1858 19.2972L49.3551 15.6617L52.1962 13.2012C52.4605 12.9724 52.5616 12.6099 52.4527 12.2801C52.3437 11.9504 52.0461 11.7158 51.6951 11.6836L47.9287 11.3385L46.4311 7.91635C46.2915 7.59754 45.973 7.39121 45.6207 7.39121C45.2683 7.39121 44.9499 7.59754 44.8102 7.91635L43.3127 11.3378L39.5456 11.6836C39.1945 11.7158 38.897 11.9504 38.788 12.2801C38.679 12.6099 38.7802 12.9724 39.0444 13.2012L41.8856 15.6617L41.0549 19.2972C40.9772 19.636 41.1123 19.9869 41.3968 20.1913C41.682 20.3951 42.0624 20.4124 42.3658 20.2357L45.6194 18.3344L48.8729 20.2357C49.0145 20.3167 49.1698 20.3572 49.3251 20.3572ZM46.0716 16.5757C45.9326 16.4948 45.7773 16.4543 45.6213 16.4543C45.4654 16.4543 45.3101 16.4948 45.1711 16.5757L43.2278 17.7115L43.7237 15.5402C43.7949 15.2298 43.6879 14.9065 43.4458 14.6969L41.7485 13.2276L43.9985 13.0212C44.3195 12.9917 44.5994 12.7918 44.7267 12.4999L45.6213 10.4559L46.5159 12.4999C46.6438 12.7918 46.9231 12.9917 47.2442 13.0212L49.4941 13.2276L47.7969 14.6969C47.5548 14.9071 47.4478 15.2304 47.5189 15.5402L48.0148 17.7115L46.0716 16.5757ZM59.9568 27.668C59.8478 27.3383 59.5503 27.1037 59.1992 27.0715L55.4328 26.7264L53.9352 23.3043C53.7956 22.9854 53.4772 22.7791 53.1248 22.7791C52.7724 22.7791 52.454 22.9854 52.3143 23.3043L50.8168 26.7257L47.0497 27.0715C46.6986 27.1037 46.4011 27.3383 46.2921 27.6687C46.1831 27.9984 46.2843 28.3609 46.5486 28.5898L49.3897 31.0503L48.559 34.6858C48.4814 35.0245 48.6164 35.3755 48.9009 35.5799C49.1861 35.7836 49.5665 35.801 49.8699 35.6242L53.1235 33.7229L56.377 35.6242C56.516 35.7059 56.6719 35.7457 56.8272 35.7457C57.01 35.7457 57.192 35.6898 57.346 35.5799C57.6312 35.3761 57.7656 35.0245 57.6879 34.6858L56.8573 31.0503L59.6984 28.5898C59.9646 28.3596 60.0658 27.9978 59.9568 27.668ZM55.3003 30.0842C55.0582 30.2944 54.9512 30.6177 55.0223 30.9275L55.5183 33.0988L53.575 31.963C53.436 31.882 53.2807 31.8415 53.1248 31.8415C52.9688 31.8415 52.8135 31.882 52.6745 31.963L50.7313 33.0988L51.2272 30.9275C51.2983 30.617 51.1913 30.2937 50.9492 30.0842L49.252 28.6148L51.5019 28.4085C51.823 28.3789 52.1029 28.179 52.2302 27.8872L53.1248 25.8432L54.0194 27.8872C54.1473 28.179 54.4266 28.3789 54.7476 28.4085L56.9976 28.6148L55.3003 30.0842Z" fill="#F25039"/>
</svg>
