<svg width="14" height="20" viewBox="0 0 14 20" fill="none" xmlns="http://www.w3.org/2000/svg">
<path d="M7 20L6.56923 19.5068C6.3 19.2329 0 11.6712 0 7.12329C0 3.17808 3.12308 0 7 0C10.8769 0 14 3.17808 14 7.12329C14 11.6712 7.7 19.2329 7.43077 19.5616L7 20ZM7 1.09589C3.71538 1.09589 1.07692 3.78082 1.07692 7.12329C1.07692 10.6301 5.6 16.5479 7 18.3014C8.4 16.5479 12.9231 10.6301 12.9231 7.12329C12.9231 3.78082 10.2846 1.09589 7 1.09589Z" fill="black"/>
<path d="M7 10C5.32 10 4 8.68 4 7C4 5.32 5.32 4 7 4C8.68 4 10 5.32 10 7C10 8.68 8.68 10 7 10ZM7 5.2C5.98 5.2 5.2 5.98 5.2 7C5.2 8.02 5.98 8.8 7 8.8C8.02 8.8 8.8 8.02 8.8 7C8.8 5.98 8.02 5.2 7 5.2Z" fill="black"/>
</svg>
