<svg width="56" height="56" viewBox="0 0 56 56" fill="none" xmlns="http://www.w3.org/2000/svg">
<circle cx="28" cy="28" r="28" fill="white"/>
<path d="M28 17.25C30.5859 17.25 33.0658 18.2772 34.8943 20.1057C36.7228 21.9342 37.75 24.4141 37.75 27C37.75 31.12 34.855 35.61 29.14 40.518C28.8222 40.791 28.4171 40.9409 27.9981 40.9405C27.5792 40.9402 27.1743 40.7895 26.857 40.516L26.479 40.188C21.017 35.408 18.25 31.028 18.25 27C18.25 24.4141 19.2772 21.9342 21.1057 20.1057C22.9342 18.2772 25.4141 17.25 28 17.25ZM28 18.75C25.812 18.75 23.7135 19.6192 22.1664 21.1664C20.6192 22.7135 19.75 24.812 19.75 27C19.75 30.502 22.298 34.537 27.464 39.057L27.837 39.38C27.8824 39.419 27.9402 39.4404 28 39.4404C28.0598 39.4404 28.1176 39.419 28.163 39.38C33.579 34.728 36.25 30.585 36.25 27C36.25 25.9166 36.0366 24.8438 35.622 23.8429C35.2074 22.8419 34.5997 21.9325 33.8336 21.1664C33.0675 20.4003 32.1581 19.7926 31.1571 19.378C30.1562 18.9634 29.0834 18.75 28 18.75ZM28 23.25C28.9946 23.25 29.9484 23.6451 30.6517 24.3483C31.3549 25.0516 31.75 26.0054 31.75 27C31.75 27.9946 31.3549 28.9484 30.6517 29.6517C29.9484 30.3549 28.9946 30.75 28 30.75C27.0054 30.75 26.0516 30.3549 25.3483 29.6517C24.6451 28.9484 24.25 27.9946 24.25 27C24.25 26.0054 24.6451 25.0516 25.3483 24.3483C26.0516 23.6451 27.0054 23.25 28 23.25ZM28 24.75C27.4033 24.75 26.831 24.9871 26.409 25.409C25.9871 25.831 25.75 26.4033 25.75 27C25.75 27.5967 25.9871 28.169 26.409 28.591C26.831 29.0129 27.4033 29.25 28 29.25C28.5967 29.25 29.169 29.0129 29.591 28.591C30.0129 28.169 30.25 27.5967 30.25 27C30.25 26.4033 30.0129 25.831 29.591 25.409C29.169 24.9871 28.5967 24.75 28 24.75Z" fill="#008CCF"/>
</svg>
