<svg width="56" height="56" viewBox="0 0 56 56" fill="none" xmlns="http://www.w3.org/2000/svg">
<circle cx="28" cy="28" r="28" fill="#00A659"/>
<path d="M35.4349 20.0649H20.5649C19.9019 20.0649 19.266 20.3283 18.7972 20.7972C18.3283 21.266 18.0649 21.9019 18.0649 22.5649V33.4349C18.0649 34.098 18.3283 34.7339 18.7972 35.2027C19.266 35.6715 19.9019 35.9349 20.5649 35.9349H35.4349C36.098 35.9349 36.7339 35.6715 37.2027 35.2027C37.6715 34.7339 37.9349 34.098 37.9349 33.4349V22.5649C37.9349 21.9019 37.6715 21.266 37.2027 20.7972C36.7339 20.3283 36.098 20.0649 35.4349 20.0649ZM20.5649 21.0649H35.4349C35.8135 21.0638 36.1782 21.207 36.4549 21.4652C36.7317 21.7234 36.8998 22.0773 36.9249 22.4549C34.4549 23.7749 31.9749 25.0849 29.4949 26.4049C29.1594 26.6152 28.8045 26.7927 28.4349 26.9349C28.1448 26.9922 27.8459 26.987 27.5579 26.9198C27.27 26.8525 26.9997 26.7248 26.7649 26.5449C25.3449 25.7949 23.9249 25.0349 22.5149 24.2849C21.3749 23.6849 20.2149 23.0749 19.0749 22.4649C19.0981 22.0857 19.2653 21.7295 19.5422 21.4693C19.8191 21.2091 20.1849 21.0645 20.5649 21.0649ZM36.9349 33.4349C36.9349 33.8328 36.7769 34.2143 36.4956 34.4956C36.2143 34.7769 35.8328 34.9349 35.4349 34.9349H20.5649C20.1671 34.9349 19.7856 34.7769 19.5043 34.4956C19.223 34.2143 19.0649 33.8328 19.0649 33.4349V23.5999C21.4249 24.8399 23.7749 26.0999 26.1349 27.3499C26.5566 27.6085 27.0105 27.8102 27.4849 27.9499C28.1793 28.0628 28.891 27.9169 29.4849 27.5399C30.9349 26.7799 32.3749 26.0099 33.8249 25.2499C34.8649 24.6899 35.8949 24.1499 36.9349 23.5999V33.4349Z" fill="white"/>
</svg>
