<svg width="56" height="56" viewBox="0 0 56 56" fill="none" xmlns="http://www.w3.org/2000/svg">
<circle cx="28" cy="28" r="28" fill="#00A659"/>
<path d="M38.8727 32.9998L33.3391 30.5237C33.1246 30.4308 32.8903 30.3929 32.6574 30.4134C32.4246 30.4338 32.2005 30.512 32.0055 30.6408C31.9899 30.6507 31.975 30.6617 31.961 30.6737L29.0547 33.151C28.99 33.1904 28.9166 33.2133 28.841 33.2176C28.7654 33.2219 28.6898 33.2075 28.6211 33.1756C26.718 32.2569 24.7481 30.3022 23.8293 28.4213C23.7968 28.3531 23.7817 28.2779 23.7854 28.2024C23.7891 28.127 23.8114 28.0536 23.8504 27.9889L26.3348 25.0346C26.3465 25.0205 26.357 25.0053 26.3676 24.9901C26.496 24.7953 26.574 24.5716 26.5944 24.3393C26.6149 24.1069 26.5772 23.873 26.4848 23.6588L24.0039 18.1346C23.8842 17.8548 23.6768 17.6214 23.4131 17.4695C23.1494 17.3176 22.8435 17.2553 22.5414 17.292C21.0667 17.4865 19.7132 18.2111 18.7337 19.3305C17.7542 20.45 17.2157 21.8877 17.2188 23.3752C17.2188 32.4221 24.5781 39.7815 33.625 39.7815C35.1125 39.7846 36.5502 39.2461 37.6697 38.2666C38.7892 37.2871 39.5138 35.9335 39.7082 34.4588C39.7447 34.1581 39.683 33.8536 39.5325 33.5907C39.3819 33.3278 39.1505 33.1206 38.8727 32.9998ZM38.7813 34.3416C38.6158 35.5905 38.0011 36.7364 37.0521 37.5651C36.1031 38.3937 34.8848 38.8483 33.625 38.844C25.0961 38.844 18.1563 31.9041 18.1563 23.3752C18.1519 22.1154 18.6065 20.8971 19.4352 19.9481C20.2638 18.9991 21.4097 18.3845 22.6586 18.219C22.6773 18.2178 22.6961 18.2178 22.7149 18.219C22.8073 18.2198 22.8975 18.2479 22.974 18.2998C23.0506 18.3517 23.11 18.4251 23.1449 18.5108L25.6188 24.035C25.6476 24.1025 25.6602 24.1759 25.6555 24.2491C25.6509 24.3224 25.629 24.3936 25.5918 24.4569L23.1086 27.41C23.0969 27.4252 23.0852 27.4393 23.0746 27.4557C22.9423 27.658 22.8644 27.891 22.8484 28.1322C22.8324 28.3734 22.8788 28.6146 22.9832 28.8326C24.0016 30.9174 26.1016 33.0022 28.2098 34.0205C28.4293 34.1242 28.6719 34.1694 28.914 34.1515C29.1561 34.1336 29.3895 34.0534 29.5914 33.9186L29.6348 33.8858L32.5445 31.4108C32.6068 31.3727 32.6772 31.35 32.7499 31.3445C32.8226 31.339 32.8956 31.3509 32.9629 31.3791L38.4953 33.8588C38.5887 33.8977 38.667 33.9657 38.7185 34.0527C38.7701 34.1397 38.7921 34.2411 38.7813 34.3416Z" fill="white"/>
</svg>
